<svg xmlns="http://www.w3.org/2000/svg" viewBox="0 -0.5 25 25" shape-rendering="crispEdges">
<metadata>Made with Pixels to Svg https://codepen.io/shshaw/pen/XbxvNj</metadata>
<path stroke="#fffffe" d="M9 0h1M3 4h1M21 4h1M2 6h1M14 24h1" />
<path stroke="#fffeff" d="M10 0h2M24 9h1M0 14h1M2 18h1M4 21h1M7 23h1M15 24h1" />
<path stroke="#ffffff" d="M12 0h1M14 0h2M7 1h1M16 1h1M5 2h2M18 2h1M4 3h1M20 3h1M2 5h1M22 5h1M22 6h1M1 7h1M23 7h1M1 8h1M23 8h1M0 9h1M0 10h1M24 10h1M0 11h1M24 11h1M24 12h1M0 13h1M24 13h1M24 14h1M0 15h1M24 15h1M1 16h1M23 16h1M1 17h1M23 17h1M22 18h1M22 19h1M3 20h1M20 21h1M5 22h2M18 22h2M8 23h1M16 23h2M9 24h5" />
<path stroke="#feffff" d="M13 0h1M8 1h1M17 1h1M19 2h1M0 12h1" />
<path stroke="#fefefe" d="M2 19h1" />
<path stroke="#fefeff" d="M21 20h1" />
</svg>