<svg xmlns="http://www.w3.org/2000/svg" viewBox="0 -0.5 15 15" shape-rendering="crispEdges">
<metadata>Made with Pixels to Svg https://codepen.io/shshaw/pen/XbxvNj</metadata>
<path stroke="#fffffe" d="M5 0h1M2 2h1M14 6h1M14 7h1M8 8h1M14 9h1" />
<path stroke="#ffffff" d="M6 0h3M4 1h1M10 1h2M7 2h1M12 2h1M1 3h1M13 3h1M1 4h1M14 5h1M7 7h1M0 8h1M14 8h1M0 9h1M9 9h1M10 10h1M13 10h1M1 11h1M13 11h1M2 12h1M3 13h2M11 13h1M5 14h2M8 14h2" />
<path stroke="#feffff" d="M9 0h1M3 1h1M0 5h1M0 6h1M0 7h1M12 12h1" />
<path stroke="rgba(255,254,255,0.00392156862745098)" d="M10 2h1" />
<path stroke="#fffeff" d="M7 3h1M7 4h1M13 4h1M7 5h1M7 6h1M1 10h1M10 13h1M7 14h1" />
<path stroke="rgba(0,0,0,0.00392156862745098)" d="M9 3h1" />
<path stroke="rgba(1,0,0,0.01568627450980392)" d="M6 7h1" />
<path stroke="rgba(255,255,254,0.00392156862745098)" d="M8 7h1" />
<path stroke="rgba(255,255,255,0.00392156862745098)" d="M8 9h1" />
<path stroke="rgba(1,0,0,0.00784313725490196)" d="M6 10h1" />
<path stroke="rgba(254,255,255,0.023529411764705882)" d="M9 10h1" />
<path stroke="rgba(1,0,0,0.00392156862745098)" d="M6 11h1" />
<path stroke="rgba(255,255,1,0.00392156862745098)" d="M8 11h1" />
<path stroke="rgba(255,255,255,0.00784313725490196)" d="M10 11h1" />
<path stroke="rgba(0,0,1,0.00392156862745098)" d="M5 12h1M11 14h1" />
<path stroke="rgba(255,255,85,0.011764705882352941)" d="M5 13h1" />
</svg>