<svg xmlns="http://www.w3.org/2000/svg" viewBox="0 -0.5 25 21" shape-rendering="crispEdges">
<metadata>Made with Pixels to Svg https://codepen.io/shshaw/pen/XbxvNj</metadata>
<path stroke="#ffffff" d="M0 0h1M12 0h1M24 0h1M0 1h2M11 1h1M13 1h1M23 1h2M0 2h1M2 2h1M14 2h1M22 2h1M24 2h1M0 3h1M3 3h1M9 3h1M15 3h1M21 3h1M0 4h1M4 4h1M16 4h1M24 4h1M5 5h1M17 5h1M24 5h1M0 6h1M18 6h1M24 6h1M0 7h1M24 7h1M0 8h1M0 9h1M24 9h1M0 10h1M24 10h1M0 12h1M24 12h1M0 13h1M24 14h1M0 15h1M24 15h1M0 16h1M24 16h1M0 17h1M24 17h1M0 18h1M24 18h1M0 19h1M24 19h1M0 20h1M2 20h4M7 20h2M10 20h2M13 20h1M15 20h6M23 20h2" />
<path stroke="rgba(255,255,255,0.09019607843137255)" d="M9 1h1M6 4h1" />
<path stroke="#f2d656" d="M12 1h1M11 2h2M23 2h1M1 3h1M10 3h2M22 3h2M21 4h2M1 5h2M8 5h2M20 5h2M1 6h2M7 6h2M19 6h2M1 7h2M1 8h1M1 9h1M2 10h1M1 12h1M2 13h1M1 14h2M2 15h1M1 16h2M1 17h2M1 18h1M1 19h1" />
<path stroke="#f3d656" d="M1 2h1M2 4h1M1 11h1M2 19h1" />
<path stroke="#feffff" d="M10 2h1M24 3h1M8 4h1M20 4h1M7 5h1M19 5h1M6 6h1M1 20h1M22 20h1" />
<path stroke="#d4aa0d" d="M13 2h1M12 3h2M3 4h1M11 4h1M13 4h2M23 4h1M3 5h2M10 5h2M15 5h1M22 5h2M3 6h2M10 6h6M21 6h3M3 7h4M8 7h1M11 7h7M20 7h4M4 8h1M6 8h6M13 8h1M17 8h1M20 8h3M4 9h1M6 9h3M10 9h3M16 9h1M19 9h4M3 10h3M7 10h5M13 10h2M16 10h3M20 10h4M5 11h1M7 11h1M9 11h2M13 11h4M18 11h3M4 12h2M7 12h1M9 12h1M13 12h7M21 12h1M23 12h1M3 13h1M5 13h4M11 13h8M20 13h4M3 14h4M8 14h3M12 14h2M15 14h5M21 14h3M3 15h1M5 15h4M10 15h3M15 15h7M23 15h1M3 16h5M9 16h4M15 16h5M23 16h1M4 17h1M6 17h2M9 17h1M12 17h2M15 17h1M17 17h3M21 17h3M4 18h1M6 18h3M12 18h4M17 18h2M21 18h2M3 19h3M7 19h3M11 19h2M14 19h2M17 19h4M22 19h2" />
<path stroke="#f2d657" d="M2 3h1M1 4h1M10 4h1M2 9h1M1 10h1M2 12h1M1 13h1M2 18h1" />
<path stroke="rgba(255,255,255,0.00392156862745098)" d="M8 3h1" />
<path stroke="#d4aa0c" d="M14 3h1M12 5h1M5 6h1M17 6h1M7 7h1M10 7h1M19 7h1M3 8h1M12 8h1M15 8h1M18 8h1M5 9h1M14 9h1M17 9h1M23 9h1M19 10h1M3 11h1M6 11h1M12 11h1M21 11h1M8 12h1M11 12h1M20 12h1M4 13h1M10 13h1M19 13h1M14 15h1M13 16h1M22 16h1M3 17h1M5 18h1M11 18h1M20 18h1M23 18h1M10 19h1M13 19h1M16 19h1" />
<path stroke="#f2d756" d="M9 4h1M2 8h1M2 11h1M1 15h1" />
<path stroke="#d4ab0d" d="M12 4h1M15 4h1M14 5h1M16 6h1M9 7h1M18 7h1M5 8h1M14 8h1M23 8h1M13 9h1M6 10h1M12 10h1M15 10h1M8 11h1M11 11h1M17 11h1M23 11h1M10 12h1M22 12h1M9 13h1M11 14h1M14 14h1M20 14h1M4 15h1M13 15h1M22 15h1M21 16h1M5 17h1M8 17h1M11 17h1M14 17h1M20 17h1M10 18h1M16 18h1M19 18h1M6 19h1M21 19h1" />
<path stroke="#fffffe" d="M0 5h1M24 8h1M0 11h1M24 11h1M0 14h1M6 20h1M9 20h1M12 20h1M21 20h1" />
<path stroke="#d5aa0d" d="M13 5h1M16 5h1M9 6h1M16 8h1M19 8h1M3 9h1M9 9h1M15 9h1M18 9h1M4 11h1M22 11h1M3 12h1M6 12h1M12 12h1M7 14h1M9 15h1M8 16h1M14 16h1M20 16h1M10 17h1M16 17h1M3 18h1M9 18h1" />
<path stroke="#fffeff" d="M24 13h1M14 20h1" />
</svg>