<svg xmlns="http://www.w3.org/2000/svg" viewBox="0 -0.5 62 39" shape-rendering="crispEdges">
<metadata>Made with Pixels to Svg https://codepen.io/shshaw/pen/XbxvNj</metadata>
<path stroke="rgba(255,255,255,0.00392156862745098)" d="M8 0h2M4 6h1M48 7h1M23 8h1M26 8h1M31 8h4M47 8h1M49 8h1M56 8h1M20 10h1M20 11h1M25 17h1M37 25h2M35 28h1M38 31h1M7 32h1M7 33h1" />
<path stroke="rgba(255,255,255,0.10588235294117647)" d="M10 0h1M6 2h1" />
<path stroke="#ffffff" d="M11 0h2M15 0h5M21 0h1M23 0h6M30 0h13M44 0h5M50 0h3M10 1h7M18 1h3M23 1h7M31 1h15M47 1h7M9 2h3M14 2h3M52 2h3M8 3h3M15 3h3M53 3h2M7 4h3M16 4h1M18 4h1M54 4h3M6 5h1M8 5h1M17 5h3M55 5h1M57 5h1M5 6h3M18 6h2M56 6h3M5 7h2M19 7h3M57 7h3M3 8h1M5 8h1M20 8h3M58 8h3M2 9h3M21 9h3M59 9h3M1 10h3M22 10h3M61 10h1M0 11h3M24 11h1M60 11h2M0 12h2M23 12h2M38 12h11M60 12h2M0 13h2M23 13h2M37 13h1M49 13h1M60 13h2M0 14h2M23 14h2M37 14h1M49 14h1M60 14h2M0 15h2M4 15h8M13 15h9M24 15h1M26 15h6M33 15h1M35 15h3M49 15h10M60 15h2M0 16h2M3 16h9M13 16h9M23 16h2M26 16h3M30 16h8M49 16h4M54 16h4M60 16h2M0 17h2M23 17h2M37 17h1M49 17h1M60 17h2M0 18h2M11 18h1M23 18h2M37 18h1M49 18h1M60 18h2M0 19h2M11 19h2M23 19h2M37 19h1M49 19h1M60 19h2M0 20h2M10 20h1M13 20h1M23 20h2M38 20h11M60 20h2M0 21h2M10 21h1M13 21h1M23 21h2M60 21h2M0 22h2M9 22h1M14 22h1M23 22h2M60 22h2M0 23h2M8 23h1M15 23h1M24 23h1M60 23h2M8 24h1M15 24h1M23 24h2M36 24h1M38 24h1M47 24h4M60 24h2M0 25h2M16 25h1M23 25h2M35 25h2M39 25h2M46 25h2M50 25h2M60 25h2M0 26h2M7 26h1M16 26h1M23 26h2M34 26h2M46 26h1M60 26h1M0 27h2M6 27h1M17 27h1M23 27h2M34 27h1M45 27h1M60 27h2M0 28h2M7 28h1M23 28h2M34 28h1M38 28h3M45 28h1M49 28h3M60 28h2M0 29h2M8 29h1M15 29h1M23 29h1M34 29h1M45 29h1M51 29h1M60 29h2M0 30h2M6 30h1M9 30h1M14 30h1M17 30h1M23 30h2M34 30h2M40 30h1M45 30h2M51 30h1M60 30h2M0 31h2M7 31h1M10 31h1M13 31h1M16 31h1M24 31h1M35 31h1M39 31h1M46 31h1M50 31h1M60 31h2M0 32h2M11 32h2M15 32h1M24 32h1M36 32h3M47 32h2M60 32h2M0 33h2M9 33h1M14 33h1M23 33h2M60 33h2M0 34h2M13 34h1M23 34h2M60 34h2M0 35h2M11 35h2M23 35h2M60 35h2M0 36h3M23 36h2M60 36h2M1 37h26M28 37h3M32 37h10M43 37h17M2 38h1M4 38h1M6 38h9M16 38h13M30 38h24M55 38h4" />
<path stroke="#fffeff" d="M13 0h1M22 0h1M43 0h1M49 0h1M17 1h1M55 3h1M17 4h1M34 15h1M29 16h1M53 16h1M1 24h1M37 24h1M45 26h1M24 29h1M23 31h1M3 38h1M15 38h1M54 38h1" />
<path stroke="#fffffe" d="M14 0h1M20 0h1M29 0h1M21 1h1M30 1h1M7 5h1M20 6h1M4 8h1M60 10h1M23 15h1M32 15h1M12 16h1M61 26h1M40 29h1M49 32h1M27 37h1M42 37h1" />
<path stroke="rgba(255,255,255,0.0196078431372549)" d="M7 1h1M53 4h1M16 5h1" />
<path stroke="rgba(255,255,255,0.023529411764705882)" d="M8 1h1M54 5h1M48 25h1" />
<path stroke="rgba(255,255,255,0.01568627450980392)" d="M9 1h1M35 7h1M39 7h1M56 7h1M28 8h1M55 8h1M19 9h1M57 10h1" />
<path stroke="#feffff" d="M22 1h1M46 1h1M56 5h1M4 7h1M23 11h1M3 15h1M12 15h1M58 16h1M12 18h1M23 23h1M0 24h1M39 24h1M7 25h1M16 28h1M8 32h1M23 32h1M10 34h1M31 37h1M5 38h1M29 38h1" />
<path stroke="rgba(255,255,255,0.043137254901960784)" d="M7 2h1" />
<path stroke="rgba(255,255,255,0.03529411764705882)" d="M6 3h1M57 8h1" />
<path stroke="rgba(255,255,255,0.011764705882352941)" d="M5 4h1M4 5h1M3 7h1M2 8h1M19 10h1M47 26h1M36 31h1" />
<path stroke="rgba(255,255,255,0.027450980392156862)" d="M55 6h1M46 29h1" />
<path stroke="rgba(255,255,255,0.00784313725490196)" d="M38 7h1M18 8h1M25 8h1M35 8h2M43 8h1M49 25h1" />
<path stroke="rgba(255,255,255,0.0392156862745098)" d="M55 7h1M35 27h1" />
<path stroke="rgba(255,255,255,0.058823529411764705)" d="M27 8h1M46 27h1" />
<path stroke="rgba(255,254,255,0.00784313725490196)" d="M42 8h1" />
<path stroke="rgba(255,255,254,0.00392156862745098)" d="M46 8h1" />
<path stroke="rgba(255,255,255,0.050980392156862744)" d="M57 9h1" />
<path stroke="#d4aa0d" d="M38 13h11M38 14h2M41 14h5M47 14h2M39 15h1M42 15h3M47 15h2M38 16h2M41 16h1M43 16h1M45 16h1M47 16h2M38 17h2M41 17h2M44 17h2M47 17h2M38 18h2M41 18h5M47 18h2M38 19h11" />
<path stroke="#000001" d="M40 14h1M42 16h1M43 17h1" />
<path stroke="#000000" d="M46 14h1M41 15h1M45 15h2M40 16h1M46 16h1M40 17h1M46 17h1M40 18h1M46 18h1" />
<path stroke="rgba(255,255,255,0.09803921568627451)" d="M2 15h1" />
<path stroke="#d4aa0c" d="M38 15h1" />
<path stroke="#000100" d="M40 15h1M44 16h1" />
<path stroke="rgba(255,255,255,0.0784313725490196)" d="M35 29h1" />
</svg>