<svg xmlns="http://www.w3.org/2000/svg" viewBox="0 -0.5 64 64" shape-rendering="crispEdges">
<metadata>Made with Pixels to Svg https://codepen.io/shshaw/pen/XbxvNj</metadata>
<path stroke="rgba(255,255,255,0.00392156862745098)" d="M10 12h2M6 18h1M25 20h1M28 20h1M34 20h3M40 20h4M46 20h3M50 20h1M52 20h1M54 20h1M58 20h1M22 23h1M37 37h2M35 40h1M38 43h1M9 44h1" />
<path stroke="rgba(254,255,255,0.10588235294117647)" d="M12 12h1" />
<path stroke="#ffffff" d="M13 12h3M17 12h5M23 12h1M25 12h2M28 12h8M37 12h2M40 12h15M12 13h10M23 13h18M42 13h14M11 14h3M16 14h3M54 14h3M10 15h3M17 15h2M55 15h3M9 16h3M18 16h3M56 16h3M8 17h3M19 17h3M57 17h3M7 18h3M20 18h3M58 18h3M6 19h3M21 19h3M60 19h2M5 20h3M22 20h3M60 20h2M4 21h3M23 21h2M61 21h1M3 22h3M23 22h2M61 22h1M2 23h3M23 23h2M61 23h1M23 24h2M37 24h6M44 24h4M61 24h1M2 25h2M23 25h2M36 25h1M48 25h1M61 25h1M2 26h2M23 26h2M36 26h1M48 26h1M61 26h1M2 27h35M48 27h8M57 27h3M61 27h1M2 28h35M48 28h1M50 28h6M57 28h3M61 28h1M2 29h1M23 29h2M36 29h1M48 29h1M61 29h1M2 30h2M23 30h2M36 30h1M48 30h1M61 30h1M2 31h2M23 31h2M36 31h1M48 31h1M61 31h1M2 32h2M23 32h1M37 32h11M61 32h1M2 33h2M23 33h2M61 33h1M2 34h2M23 34h2M61 34h1M2 35h2M23 35h2M61 35h1M2 36h2M23 36h2M61 36h1M2 37h2M23 37h2M61 37h1M2 38h2M23 38h2M61 38h1M2 39h2M23 39h2M2 40h2M23 40h2M61 40h1M2 41h1M23 41h1M2 42h2M23 42h2M61 42h1M3 43h1M23 43h2M61 43h1M2 44h2M23 44h2M61 44h1M2 45h2M23 45h2M61 45h1M2 46h2M23 46h2M61 46h1M2 47h2M23 47h2M61 47h1M2 48h2M23 48h1M60 48h2M3 49h23M28 49h4M33 49h13M48 49h13M4 50h34M39 50h21" />
<path stroke="#fffffe" d="M16 12h1M22 12h1M24 12h1M41 13h1M59 19h1M61 39h1M24 48h1M27 49h1M32 49h1M46 49h1M38 50h1" />
<path stroke="#fffeff" d="M27 12h1M39 12h1M2 24h2M43 24h1M49 28h1M3 29h1M3 41h1M24 41h1M61 41h1M4 48h1M26 49h1M47 49h1" />
<path stroke="#feffff" d="M36 12h1M22 13h1M19 15h1M56 27h1M56 28h1M24 32h1M2 43h1" />
<path stroke="rgba(255,255,255,0.0196078431372549)" d="M9 13h1M55 16h1M18 17h1" />
<path stroke="rgba(255,255,255,0.023529411764705882)" d="M10 13h1M56 17h1M48 37h1" />
<path stroke="rgba(255,255,255,0.01568627450980392)" d="M11 13h1M37 19h1M41 19h1M58 19h1M30 20h2M21 21h1M59 22h1" />
<path stroke="rgba(255,255,255,0.10588235294117647)" d="M8 14h1" />
<path stroke="rgba(255,255,255,0.043137254901960784)" d="M9 14h1" />
<path stroke="rgba(255,255,255,0.03529411764705882)" d="M8 15h1" />
<path stroke="rgba(255,255,255,0.011764705882352941)" d="M7 16h1M6 17h1M5 19h1M4 20h1M39 20h1M21 22h2M47 38h1M36 43h1" />
<path stroke="rgba(255,255,255,0.027450980392156862)" d="M57 18h1M46 41h1" />
<path stroke="rgba(255,255,254,0.01568627450980392)" d="M38 19h1M57 20h1" />
<path stroke="rgba(255,255,255,0.00784313725490196)" d="M39 19h2M27 20h1M32 20h1M37 20h2M45 20h1M53 20h1M49 37h1" />
<path stroke="rgba(255,254,255,0.0392156862745098)" d="M57 19h1M35 39h1" />
<path stroke="rgba(254,255,255,0.00784313725490196)" d="M20 20h1" />
<path stroke="rgba(255,255,255,0.058823529411764705)" d="M29 20h1M46 39h1" />
<path stroke="rgba(255,255,254,0.00392156862745098)" d="M33 20h1M9 45h1" />
<path stroke="rgba(255,255,254,0.00784313725490196)" d="M44 20h1" />
<path stroke="rgba(255,254,255,0.00392156862745098)" d="M49 20h1" />
<path stroke="rgba(254,255,255,0.03529411764705882)" d="M59 20h1" />
<path stroke="rgba(255,255,255,0.050980392156862744)" d="M59 21h1" />
<path stroke="#000000" d="M60 21h1M60 22h1M60 23h1M60 24h1M60 25h1M39 26h1M45 26h1M60 26h1M39 27h2M44 27h1M60 27h1M39 28h1M41 28h1M43 28h1M45 28h1M60 28h1M39 29h1M45 29h1M60 29h1M39 30h1M45 30h1M60 30h1M60 31h1M60 32h1M60 33h1M60 34h1M60 35h1M60 36h1M60 37h1M60 38h1M60 39h1M60 40h1M60 41h1M60 42h1M60 43h1M60 44h1M60 45h1M60 46h1" />
<path stroke="#d4aa0d" d="M37 25h11M38 26h1M40 26h5M46 26h2M37 27h2M41 27h2M46 27h2M37 28h2M40 28h1M42 28h1M44 28h1M46 28h2M37 29h1M40 29h2M43 29h2M46 29h2M13 30h2M37 30h1M40 30h5M46 30h2M13 31h2M37 31h3M41 31h6M12 32h1M15 32h1M12 33h1M15 33h1M11 34h1M16 34h1M10 35h1M17 35h1M10 36h1M17 36h1M36 36h1M38 36h2M47 36h4M9 37h1M18 37h1M35 37h2M39 37h2M46 37h2M50 37h2M9 38h1M18 38h1M34 38h2M45 38h2M8 39h1M19 39h1M34 39h1M45 39h1M9 40h1M18 40h1M34 40h1M38 40h3M45 40h1M50 40h2M10 41h1M17 41h1M34 41h1M40 41h1M45 41h1M8 42h1M11 42h1M19 42h1M34 42h2M40 42h1M45 42h2M51 42h1M9 43h1M12 43h1M15 43h1M18 43h1M35 43h1M39 43h1M46 43h1M50 43h1M10 44h1M13 44h2M17 44h1M36 44h3M47 44h3M11 45h1M16 45h1M12 46h1M15 46h1M13 47h2" />
<path stroke="#d5aa0d" d="M37 26h1M38 29h1M38 30h1" />
<path stroke="#d4ab0d" d="M43 27h1M47 31h1M49 40h1M51 41h1" />
<path stroke="#000100" d="M45 27h1" />
<path stroke="#010000" d="M42 29h1M60 47h1" />
<path stroke="#d4aa0c" d="M40 31h1M37 36h1M16 42h1" />
<path stroke="rgba(255,255,255,0.0784313725490196)" d="M35 41h1" />
</svg>