<svg xmlns="http://www.w3.org/2000/svg" viewBox="0 -0.5 16 9" shape-rendering="crispEdges">
<metadata>Made with Pixels to Svg https://codepen.io/shshaw/pen/XbxvNj</metadata>
<path stroke="#ffffff" d="M4 0h1M3 1h2M2 2h1M1 3h1M14 3h1M0 4h1M2 4h1M4 4h1M6 4h2M10 4h2M13 4h1M15 4h1M2 5h1M15 5h1M3 6h1M4 7h1" />
<path stroke="#fffffe" d="M3 2h1M2 3h1M1 4h1M2 6h1" />
<path stroke="#fffeff" d="M13 3h1M3 4h1M9 4h1M12 4h1M14 5h1M3 7h1" />
<path stroke="#feffff" d="M15 3h1M5 4h1M8 4h1M1 5h1M13 5h1M4 8h1" />
</svg>