<svg xmlns="http://www.w3.org/2000/svg" viewBox="0 -0.5 19 12" shape-rendering="crispEdges">
<metadata>Made with Pixels to Svg https://codepen.io/shshaw/pen/XbxvNj</metadata>
<path stroke="#fffeff" d="M1 0h1M0 1h1M18 1h1M17 2h1M4 3h1M3 7h1M3 10h1M15 10h1M14 11h1" />
<path stroke="#fffffe" d="M17 0h1M16 1h1M1 4h1M3 5h1M6 5h1M5 6h1M1 7h1M8 9h1M12 11h1" />
<path stroke="#ffffff" d="M2 1h1M1 2h1M1 3h1M5 3h1M7 3h8M17 3h1M3 4h2M15 4h1M17 4h1M1 5h1M12 5h1M15 5h1M17 5h1M1 6h2M7 6h1M11 6h1M13 6h1M16 6h2M2 7h1M15 7h2M2 8h2M11 8h1M15 8h1M9 9h2M4 10h1M4 11h3M8 11h4" />
<path stroke="rgba(255,255,255,0.00392156862745098)" d="M9 1h1M6 6h1M4 7h1M6 7h1M4 9h1" />
<path stroke="#feffff" d="M6 3h1M14 4h1M3 6h1M15 6h1M17 7h1M7 8h1M16 8h1M3 9h1M15 9h1M14 10h1M7 11h1M13 11h1" />
<path stroke="rgba(255,255,255,0.023529411764705882)" d="M6 4h1M12 4h1" />
<path stroke="rgba(255,255,254,0.023529411764705882)" d="M7 4h1M10 4h1M13 4h1" />
<path stroke="rgba(254,255,255,0.023529411764705882)" d="M8 4h1M11 4h1" />
<path stroke="rgba(255,254,255,0.023529411764705882)" d="M9 4h1" />
<path stroke="rgba(255,255,254,0.00392156862745098)" d="M16 4h1M10 7h1" />
<path stroke="rgba(255,254,255,0.011764705882352941)" d="M11 5h1" />
<path stroke="rgba(254,255,255,0.00392156862745098)" d="M13 5h1M13 8h1" />
<path stroke="rgba(255,254,255,0.00392156862745098)" d="M4 6h1M5 8h1" />
<path stroke="rgba(255,255,255,0.01568627450980392)" d="M5 7h1" />
<path stroke="rgba(254,255,255,0.01568627450980392)" d="M11 7h1M5 10h1" />
<path stroke="rgba(255,255,254,0.011764705882352941)" d="M5 9h1" />
<path stroke="rgba(255,255,255,0.0196078431372549)" d="M6 9h1" />
<path stroke="rgba(255,255,255,0.011764705882352941)" d="M7 9h1" />
<path stroke="rgba(255,255,254,0.0392156862745098)" d="M11 9h1" />
<path stroke="rgba(255,255,255,0.03529411764705882)" d="M12 9h1" />
</svg>