<svg xmlns="http://www.w3.org/2000/svg" viewBox="0 -0.5 15 15" shape-rendering="crispEdges">
<metadata>Made with Pixels to Svg https://codepen.io/shshaw/pen/XbxvNj</metadata>
<path stroke="#ffffff" d="M5 0h2M8 0h1M3 1h1M10 1h2M2 2h1M12 2h1M1 3h1M0 5h1M4 5h1M10 5h1M0 6h1M11 6h1M12 7h1M0 8h1M0 9h1M3 9h1M6 9h1M11 9h1M14 9h1M4 10h1M10 10h1M13 10h1M1 11h1M13 11h1M6 12h2M4 13h1M10 13h1" />
<path stroke="#fffeff" d="M7 0h1M4 1h1M13 3h1M1 4h1M13 4h1M1 10h1M7 14h1" />
<path stroke="#feffff" d="M9 0h1M3 6h1M0 7h1M9 10h1M12 12h1M3 13h1M6 14h1M9 14h1" />
<path stroke="#fffffe" d="M14 5h1M14 6h1M2 7h1M14 7h1M14 8h1M8 9h1M5 10h1M2 12h1M8 12h1M11 13h1M5 14h1M8 14h1" />
</svg>